# xmcd
#
# Track frame offsets:
#	150
#	17622
#	29313
#	45089
#	59647
#	77328
#	91384
#	106076
#	122236
#	135630
#	156398
#	174004
#	186117
#	199955
#
# Disc length: 2852 seconds
#
# Revision: 2
# Processed by: cddbd v1.5.2PL0 Copyright (c) Steve Scherf et al.
# Submitted via: EZCDAudioConverter 5.1.1.1
#
DISCID=aa0b220e
DTITLE=The Cadillac Three - Bury Me in My Boots
DYEAR=2016
DGENRE=Country
TTITLE0=Bury Me In My Boots
TTITLE1=Slide
TTITLE2=Drunk Like You
TTITLE3=Graffiti
TTITLE4=Buzzin'
TTITLE5=Party Like You
TTITLE6=Ship Faced
TTITLE7=Soundtrack To A Six Pack
TTITLE8=White Lightning
TTITLE9=The South feat Florida Georgia Line, Dierks Bentley And Mike Eli)
TTITLE10=This Accent
TTITLE11=Peace Love and Dixie
TTITLE12=Hot Damn
TTITLE13=Runnin' Red Lights
EXTD=
EXTT0=
EXTT1=
EXTT2=
EXTT3=
EXTT4=
EXTT5=
EXTT6=
EXTT7=
EXTT8=
EXTT9=
EXTT10=
EXTT11=
EXTT12=
EXTT13=
PLAYORDER=
